<?xml version="1.0" encoding="utf-8"?>
<!-- Generator: Adobe Illustrator 16.0.0, SVG Export Plug-In . SVG Version: 6.00 Build 0)  -->
<!DOCTYPE svg PUBLIC "-//W3C//DTD SVG 1.1//EN" "http://www.w3.org/Graphics/SVG/1.1/DTD/svg11.dtd">
<svg version="1.1" id="图层_1" xmlns="http://www.w3.org/2000/svg" xmlns:xlink="http://www.w3.org/1999/xlink" x="0px" y="0px"
	 width="1920px" height="1080px" viewBox="0 0 1920 1080" enable-background="new 0 0 1920 1080" xml:space="preserve">
<rect x="-0.083" fill="#427B50" width="1919.259" height="1080"/>
<g>
	<rect x="1836.287" y="48.108" fill="#FFFFFF" width="165.778" height="43"/>
	<g>
		<g transform="translate(0.000000,252.000000) scale(0.100000,-0.100000)">
			<path fill="#040000" d="M18985.096,2680.019c-435.996-97.002-777.002-493.008-860-999.004c-7.998-49.004-15-110.996-15-135.996
				v-46.006l320-133.994c175.996-73.008,317.002-136.006,312.002-140c-4.004-4.004-132.002-52.002-285-107.002
				s-281.006-102.998-285-106.006c-9.004-10,22.002-95.996,77.998-211.992c140-290,392.002-510,682.002-595
				c105-31.006,352.002-38.008,468.994-14.004c338.008,67.998,626.006,317.998,780,674.004c65,151.992,98.008,123.994-257.998,225
				c-168.994,48.994-310.996,90.996-315,95c-3.994,2.998,147.002,53.994,335,111.992l342.002,106.006l-0.996,123.994
				c-2.002,519.004-349.004,1003.008-816.006,1140C19369.1,2696.015,19091.092,2703.017,18985.096,2680.019z M19924.1,1952.011
				c77.998-32.998,97.998-105.996,42.998-160.996c-59.004-59.004-155-59.004-214.004,0c-38.994,39.004-42.998,79.004-10.996,120
				C19782.098,1962.011,19858.094,1980.019,19924.1,1952.011z M18660.096,1911.015c100.996-52.002,62.002-225-50-225
				c-34.004,0-77.998,27.998-95,60C18461.092,1850.019,18560.096,1963.017,18660.096,1911.015z"/>
		</g>
	</g>
</g>
<g>
	<rect x="1402.889" y="65.481" fill="#FFFFFF" width="165.778" height="43"/>
	<g>
		<g transform="translate(0.000000,252.000000) scale(0.100000,-0.100000)">
			<path fill="#040000" d="M14651.112,2506.289c-435.996-97.002-777.002-493.008-860-999.004c-7.998-49.004-15-110.996-15-135.996
				v-46.006l320-133.994c175.996-73.008,317.002-136.006,312.002-140c-4.004-4.004-132.002-52.002-285-107.002
				c-152.998-55-281.006-102.998-285-106.006c-9.004-10,22.002-95.996,77.998-211.992c140-290,392.002-510,682.002-595
				c105-31.006,352.002-38.008,468.994-14.004c338.007,67.998,626.005,317.998,779.999,674.004
				c65,151.992,98.008,123.994-257.998,225c-168.994,48.994-310.995,90.996-314.999,95c-3.994,2.998,147.001,53.994,334.999,111.992
				l342.002,106.006l-0.996,123.994c-2.002,519.004-349.004,1003.008-816.005,1140
				C15035.116,2522.285,14757.108,2529.287,14651.112,2506.289z M15590.115,1778.281c77.998-32.998,97.998-105.996,42.998-160.996
				c-59.004-59.004-155-59.004-214.004,0c-38.994,39.004-42.998,79.004-10.996,120
				C15448.113,1788.281,15524.109,1806.289,15590.115,1778.281z M14326.112,1737.285c100.996-52.002,62.002-225-50-225
				c-34.004,0-77.998,27.998-95,60C14127.108,1676.289,14226.112,1789.287,14326.112,1737.285z"/>
		</g>
	</g>
</g>
<g>
	<rect x="900.889" y="152.463" fill="#FFFFFF" width="165.778" height="43"/>
	<g>
		<g transform="translate(0.000000,252.000000) scale(0.100000,-0.100000)">
			<path fill="#040000" d="M9631.112,1636.474c-436.001-97.002-777.002-493.008-860-999.004c-7.998-49.004-15-110.996-15-135.996
				v-46.006l320-133.994c176.001-73.008,317.002-136.006,312.002-140c-4.004-4.004-132.002-52.002-285-107.002
				c-153.003-55-281.001-102.998-285-106.006c-9.004-10,21.997-95.996,77.998-211.992c140-290,392.002-510,682.002-595
				c105-31.006,352.002-38.008,468.994-14.004c338.008,67.998,626.006,317.998,780,674.004c65,151.992,98.008,123.994-257.998,225
				c-168.994,48.994-310.996,90.996-315,95c-3.994,2.998,147.002,53.994,335,111.992l342.002,106.006l-0.996,123.994
				c-2.002,519.004-349.004,1003.008-816.006,1140C10015.116,1652.47,9737.108,1659.472,9631.112,1636.474z M10570.116,908.466
				c77.998-32.998,97.998-105.996,42.998-160.996c-59.004-59.004-155-59.004-214.004,0c-38.994,39.004-42.998,79.004-10.996,120
				C10428.114,918.466,10504.11,936.474,10570.116,908.466z M9306.112,867.47c101.001-52.002,62.002-225-50-225
				c-33.999,0-77.998,27.998-95,60C9107.113,806.474,9206.112,919.472,9306.112,867.47z"/>
		</g>
	</g>
</g>
<g>
	<rect x="1245.194" y="343.376" fill="#FFFFFF" width="165.778" height="43"/>
	<g>
		<g transform="translate(0.000000,252.000000) scale(0.100000,-0.100000)">
			<path fill="#040000" d="M13074.169-272.657c-436.006-97.002-777.002-493.008-860-999.004c-7.998-49.004-15-110.996-15-135.996
				v-46.006l320-133.994c176.006-73.008,317.002-136.006,312.002-140c-4.004-4.004-132.002-52.002-285-107.002
				c-153.008-55-280.996-102.998-285-106.006c-9.004-10,21.992-95.996,77.998-211.992c140-290,392.002-510,682.002-595
				c105-31.006,352.002-38.008,468.994-14.004c338.008,67.998,626.006,317.998,780,674.004c65,151.992,98.008,123.994-257.998,225
				c-168.994,48.994-310.996,90.996-315,95c-3.994,2.998,147.002,53.994,335,111.992l342.002,106.006l-0.996,123.994
				c-2.002,519.004-349.004,1003.008-816.006,1140C13458.173-256.661,13180.175-249.659,13074.169-272.657z M14013.173-1000.665
				c77.998-32.998,97.998-105.996,42.998-160.996c-59.004-59.004-155-59.004-214.004,0c-38.994,39.004-42.998,79.004-10.996,120
				C13871.171-990.665,13947.167-972.657,14013.173-1000.665z M12749.169-1041.661c101.006-52.002,62.002-225-50-225
				c-33.994,0-77.998,27.998-95,60C12550.175-1102.657,12649.169-989.659,12749.169-1041.661z"/>
		</g>
	</g>
</g>
<g>
	<rect x="1162.889" y="617.667" fill="#FFFFFF" width="165.778" height="43"/>
	<g>
		<g transform="translate(0.000000,252.000000) scale(0.100000,-0.100000)">
			<path fill="#040000" d="M12251.112-3015.567c-435.996-97.002-777.002-493.008-860-999.004c-7.998-49.004-15-110.996-15-135.996
				v-46.006l320-133.994c175.996-73.008,317.002-136.006,312.002-140c-4.004-4.004-132.002-52.002-285-107.002
				s-281.006-102.998-285-106.006c-9.004-10,22.002-95.996,77.998-211.992c140-290,392.002-510,682.002-595
				c105-31.006,352.002-38.008,468.994-14.004c338.008,67.998,626.006,317.998,780,674.004c65,151.992,98.008,123.994-257.998,225
				c-168.994,48.994-310.996,90.996-315,95c-3.994,2.998,147.002,53.994,335,111.992l342.002,106.006l-0.996,123.994
				c-2.002,519.004-349.004,1003.008-816.006,1140C12635.116-2999.571,12357.108-2992.569,12251.112-3015.567z M13190.116-3743.575
				c77.998-32.998,97.998-105.996,42.998-160.996c-59.004-59.004-155-59.004-214.004,0c-38.994,39.004-42.998,79.004-10.996,120
				C13048.114-3733.575,13124.11-3715.567,13190.116-3743.575z M11926.112-3784.571c100.996-52.002,62.002-225-50-225
				c-34.004,0-77.998,27.998-95,60C11727.108-3845.567,11826.112-3732.569,11926.112-3784.571z"/>
		</g>
	</g>
</g>
<g>
	<rect x="144.889" y="664.667" fill="#FFFFFF" width="165.778" height="43"/>
	<g>
		<g transform="translate(0.000000,252.000000) scale(0.100000,-0.100000)">
			<path fill="#040000" d="M2071.113-3485.567c-436.001-97.002-777.002-493.008-860-999.004c-7.998-49.004-15-110.996-15-135.996
				v-46.006l320-133.994c176.001-73.008,317.002-136.006,312.002-140c-4.004-4.004-132.002-52.002-285-107.002
				c-153.003-55-281.001-102.998-285-106.006c-9.004-10,21.997-95.996,77.998-211.992c140-290,392.002-510,682.002-595
				c105-31.006,352.002-38.008,468.994-14.004c338.008,67.998,626.006,317.998,780,674.004c65,151.992,98.008,123.994-257.998,225
				c-168.994,48.994-310.996,90.996-315,95c-3.994,2.998,147.002,53.994,335,111.992l342.002,106.006l-0.996,123.994
				c-2.002,519.004-349.004,1003.008-816.006,1140C2455.117-3469.571,2177.114-3462.569,2071.113-3485.567z M3010.117-4213.575
				c77.998-32.998,97.998-105.996,42.998-160.996c-59.004-59.004-155-59.004-214.004,0c-38.994,39.004-42.998,79.004-10.996,120
				C2868.115-4203.575,2944.111-4185.567,3010.117-4213.575z M1746.113-4254.571c101.001-52.002,62.002-225-50-225
				c-33.999,0-77.998,27.998-95,60C1547.114-4315.567,1646.113-4202.569,1746.113-4254.571z"/>
		</g>
	</g>
</g>
<g>
	<rect x="1702.694" y="294.294" fill="#FFFFFF" width="165.778" height="43"/>
	<g>
		<g transform="translate(0.000000,252.000000) scale(0.100000,-0.100000)">
			<path fill="#040000" d="M17649.168,218.163c-436.006-97.002-777.002-493.008-860-999.004c-7.998-49.004-15-110.996-15-135.996
				v-46.006l320-133.994c176.006-73.008,317.002-136.006,312.002-140c-4.004-4.004-132.002-52.002-285-107.002
				c-153.008-55-280.996-102.998-285-106.006c-9.004-10,21.992-95.996,77.998-211.992c140-290,392.002-510,682.002-595
				c105-31.006,352.002-38.008,468.994-14.004c338.008,67.998,626.006,317.998,780,674.004c65,151.992,98.008,123.994-257.998,225
				c-168.994,48.994-310.996,90.996-315,95c-3.994,2.998,147.002,53.994,335,111.992l342.002,106.006l-0.996,123.994
				c-2.002,519.004-349.004,1003.008-816.006,1140C18033.172,234.159,17755.174,241.161,17649.168,218.163z M18588.172-509.845
				c77.998-32.998,97.998-105.996,42.998-160.996c-59.004-59.004-155-59.004-214.004,0c-38.994,39.004-42.998,79.004-10.996,120
				C18446.17-499.845,18522.166-481.837,18588.172-509.845z M17324.168-550.841c101.006-52.002,62.002-225-50-225
				c-33.994,0-77.998,27.998-95,60C17125.174-611.837,17224.168-498.839,17324.168-550.841z"/>
		</g>
	</g>
</g>
<g>
	<rect x="580.166" y="91.667" fill="#FFFFFF" width="165.778" height="43"/>
	<g>
		<g transform="translate(0.000000,252.000000) scale(0.100000,-0.100000)">
			<path fill="#040000" d="M6423.886,2244.432c-436.001-97.002-777.002-493.008-860-999.004c-7.998-49.004-15-110.996-15-135.996
				v-46.006l320-133.994c176.001-73.008,317.002-136.006,312.002-140c-4.004-4.004-132.002-52.002-285-107.002
				c-153.003-55-281.001-102.998-285-106.006c-9.004-10,21.997-95.996,77.998-211.992c140-290,392.002-510,682.002-595
				c105-31.006,352.002-38.008,468.994-14.004c338.008,67.998,626.006,317.998,780,674.004c65,151.992,98.007,123.994-257.998,225
				c-168.994,48.994-310.996,90.996-315,95c-3.994,2.998,147.002,53.994,335,111.992l342.001,106.006l-0.996,123.994
				c-2.002,519.004-349.003,1003.008-816.005,1140C6807.89,2260.428,6529.887,2267.43,6423.886,2244.432z M7362.89,1516.424
				c77.998-32.998,97.998-105.996,42.998-160.996c-59.004-59.004-155-59.004-214.004,0c-38.994,39.004-42.998,79.004-10.996,120
				C7220.888,1526.424,7296.884,1544.432,7362.89,1516.424z M6098.886,1475.428c101.001-52.002,62.002-225-50-225
				c-33.999,0-77.998,27.998-95,60C5899.887,1414.432,5998.886,1527.43,6098.886,1475.428z"/>
		</g>
	</g>
</g>
<g>
	<rect x="202.889" y="191.336" fill="#FFFFFF" width="165.778" height="43"/>
	<g>
		<g transform="translate(0.000000,252.000000) scale(0.100000,-0.100000)">
			<path fill="#040000" d="M2651.113,1247.742c-436.001-97.002-777.002-493.008-860-999.004c-7.998-49.004-15-110.996-15-135.996
				V66.736l320-133.994c176.001-73.008,317.002-136.006,312.002-140c-4.004-4.004-132.002-52.002-285-107.002
				c-153.003-55-281.001-102.998-285-106.006c-9.004-10,21.997-95.996,77.998-211.992c140-290,392.002-510,682.002-595
				c105-31.006,352.002-38.008,468.994-14.004c338.008,67.998,626.006,317.998,780,674.004c65,151.992,98.008,123.994-257.998,225
				c-168.994,48.994-310.996,90.996-315,95c-3.994,2.998,147.002,53.994,335,111.992L3951.113-29.26l-0.996,123.994
				c-2.002,519.004-349.004,1003.008-816.006,1140C3035.117,1263.738,2757.114,1270.74,2651.113,1247.742z M3590.117,519.734
				c77.998-32.998,97.998-105.996,42.998-160.996c-59.004-59.004-155-59.004-214.004,0c-38.994,39.004-42.998,79.004-10.996,120
				C3448.115,529.734,3524.111,547.742,3590.117,519.734z M2326.113,478.738c101.001-52.002,62.002-225-50-225
				c-33.999,0-77.998,27.998-95,60C2127.114,417.742,2226.113,530.74,2326.113,478.738z"/>
		</g>
	</g>
</g>
<g>
	<rect x="-57.111" y="65.482" fill="#FFFFFF" width="165.778" height="43"/>
	<g>
		<g transform="translate(0.000000,252.000000) scale(0.100000,-0.100000)">
			<path fill="#040000" d="M51.113,2506.287c-436.001-97.002-777.002-493.008-860-999.004c-7.998-49.004-15-110.996-15-135.996
				v-46.006l320-133.994c176.001-73.008,317.002-136.006,312.002-140c-4.004-4.004-132.002-52.002-285-107.002
				c-153.003-55-281.001-102.998-285-106.006c-9.004-10,21.997-95.996,77.998-211.992c140-290,392.002-510,682.002-595
				c105-31.006,352.002-38.008,468.994-14.004c338.008,67.998,626.006,317.998,780,674.004c65,151.992,98.008,123.994-257.998,225
				c-168.994,48.994-310.996,90.996-315,95c-3.994,2.998,147.002,53.994,335,111.992l342.002,106.006l-0.996,123.994
				c-2.002,519.004-349.004,1003.008-816.006,1140C435.117,2522.283,157.114,2529.285,51.113,2506.287z M990.117,1778.279
				c77.998-32.998,97.998-105.996,42.998-160.996c-59.004-59.004-155-59.004-214.004,0c-38.994,39.004-42.998,79.004-10.996,120
				C848.115,1788.279,924.111,1806.287,990.117,1778.279z M-273.887,1737.283c101.001-52.002,62.002-225-50-225
				c-33.999,0-77.998,27.998-95,60C-472.886,1676.287-373.887,1789.285-273.887,1737.283z"/>
		</g>
	</g>
</g>
<g>
	<rect x="553.722" y="449.402" fill="#FFFFFF" width="165.777" height="43"/>
	<g>
		<g transform="translate(0.000000,252.000000) scale(0.100000,-0.100000)">
			<path fill="#040000" d="M6159.443-1332.922c-435.996-96.992-777.012-493.008-860-999.004c-8.008-49.004-15-110.996-15-135.996
				v-45.996l320-134.004c175.996-73.008,316.992-135.996,311.992-140c-4.004-4.004-131.992-51.992-285-106.992
				c-152.988-55-280.996-103.008-285-106.016c-9.004-10,22.012-95.996,78.008-211.992c140-290,391.992-510,681.992-595
				c105-30.996,352.012-38.008,469.004-14.004c338.008,68.008,625.996,318.008,780,674.004c65,151.992,98.008,124.004-258.008,225
				c-168.984,49.004-310.996,90.996-315,95c-3.984,3.008,147.012,54.004,335,111.992l342.012,106.016l-0.996,123.984
				c-2.012,519.004-349.004,1003.008-816.016,1140C6543.447-1316.926,6265.439-1309.914,6159.443-1332.922z M7098.447-2060.93
				c77.988-32.988,97.988-105.996,42.988-160.996c-59.004-59.004-155-59.004-214.004,0c-38.984,39.004-42.988,79.004-10.996,120
				C6956.435-2050.93,7032.431-2032.922,7098.447-2060.93z M5834.443-2101.926c100.996-51.992,61.992-225-50-225
				c-34.004,0-78.008,28.008-95,60C5635.439-2162.922,5734.443-2049.914,5834.443-2101.926z"/>
		</g>
	</g>
</g>
<g>
	<rect x="1510.473" y="972.729" fill="#FFFFFF" width="165.778" height="43"/>
	<g>
		<g transform="translate(0.000000,252.000000) scale(0.100000,-0.100000)">
			<path fill="#040000" d="M15726.951-6566.184c-435.995-97.002-777.001-493.008-859.999-999.004
				c-7.998-49.004-15-110.996-15-135.996v-46.006l320-133.994c175.996-73.008,317.001-136.006,312.001-140
				c-4.004-4.004-132.001-52.002-284.999-107.002s-281.006-102.998-285-106.006c-9.004-10,22.002-95.996,77.998-211.992
				c140-290,392.001-510,682.001-595c105-31.006,352.002-38.008,468.994-14.004c338.008,67.998,626.006,317.998,780,674.004
				c65,151.992,98.008,123.994-257.998,225c-168.994,48.994-310.996,90.996-315,95c-3.994,2.998,147.002,53.994,335,111.992
				l342.002,106.006l-0.996,123.994c-2.002,519.004-349.004,1003.008-816.006,1140
				C16110.955-6550.188,15832.947-6543.186,15726.951-6566.184z M16665.955-7294.191c77.998-32.998,97.998-105.996,42.998-160.996
				c-59.004-59.004-155-59.004-214.004,0c-38.994,39.004-42.998,79.004-10.996,120
				C16523.953-7284.191,16599.949-7266.184,16665.955-7294.191z M15401.951-7335.188c100.996-52.002,62.002-225-49.999-225
				c-34.004,0-77.998,27.998-95,60C15202.948-7396.184,15301.952-7283.186,15401.951-7335.188z"/>
		</g>
	</g>
</g>
<g>
	<rect x="1188.166" y="955.356" fill="#FFFFFF" width="165.778" height="43"/>
	<g>
		<g transform="translate(0.000000,252.000000) scale(0.100000,-0.100000)">
			<path fill="#040000" d="M12503.886-6392.454c-435.996-97.002-777.002-493.008-860-999.004c-7.998-49.004-15-110.996-15-135.996
				v-46.006l320-133.994c175.996-73.007,317.002-136.005,312.002-140c-4.004-4.004-132.002-52.002-285-107.002
				s-281.006-102.998-285-106.006c-9.004-10,22.002-95.996,77.998-211.992c140-290,392.002-510,682.002-595
				c105-31.006,352.002-38.008,468.994-14.004c338.008,67.998,626.006,317.998,780,674.004c65,151.992,98.008,123.994-257.998,225
				c-168.994,48.994-310.996,90.996-315,95c-3.994,2.998,147.002,53.994,335,111.992l342.002,106.005l-0.996,123.994
				c-2.002,519.004-349.004,1003.008-816.006,1140C12887.89-6376.458,12609.882-6369.456,12503.886-6392.454z M13442.89-7120.461
				c77.998-32.998,97.998-105.996,42.998-160.996c-59.004-59.004-155-59.004-214.004,0c-38.994,39.004-42.998,79.004-10.996,120
				C13300.888-7110.461,13376.884-7092.454,13442.89-7120.461z M12178.886-7161.458c100.996-52.002,62.002-225-50-225
				c-34.004,0-77.998,27.998-95,60C11979.882-7222.454,12078.886-7109.456,12178.886-7161.458z"/>
		</g>
	</g>
</g>
<g>
	<rect x="636.026" y="972.729" fill="#FFFFFF" width="165.778" height="43"/>
	<g>
		<g transform="translate(0.000000,252.000000) scale(0.100000,-0.100000)">
			<path fill="#040000" d="M6982.49-6566.194c-435.996-96.992-777.002-493.008-860-999.004c-7.998-49.004-15-110.996-15-135.996
				v-45.996l320-134.004c175.996-73.008,317.002-135.996,312.002-140c-4.004-4.004-132.002-51.992-285-106.992
				s-281.006-103.007-285-106.015c-9.004-10,22.002-95.996,77.998-211.992c140-290,392.002-510,682.002-595
				c105-30.996,352.002-38.008,468.994-14.004c338.007,68.008,626.005,318.008,780,674.004c65,151.992,98.008,124.004-257.998,225
				c-168.994,49.004-310.996,90.996-315,95c-3.994,3.008,147.001,54.004,335,111.992l342.002,106.016l-0.996,123.984
				c-2.002,519.004-349.004,1003.008-816.005,1140C7366.494-6550.198,7088.486-6543.186,6982.49-6566.194z M7921.493-7294.202
				c77.998-32.988,97.998-105.996,42.998-160.996c-59.004-59.004-155-59.004-214.004,0c-38.994,39.004-42.998,79.004-10.996,120
				C7779.491-7284.202,7855.487-7266.194,7921.493-7294.202z M6657.49-7335.198c100.996-51.992,62.002-225-50-225
				c-34.004,0-77.998,28.008-95,60C6458.486-7396.194,6557.49-7283.186,6657.49-7335.198z"/>
		</g>
	</g>
</g>
<g>
	<rect x="853.527" y="691.276" fill="#FFFFFF" width="165.778" height="43"/>
	<g>
		<g transform="translate(0.000000,252.000000) scale(0.100000,-0.100000)">
			<path fill="#040000" d="M9157.499-3751.654c-435.996-97.002-777.002-493.008-860-999.004c-7.998-49.004-15-110.996-15-135.996
				v-46.006l320-133.994c175.996-73.008,317.002-136.006,312.002-140c-4.004-4.004-132.002-52.002-285-107.002
				s-281.006-102.998-285-106.006c-9.004-10,22.002-95.996,77.998-211.992c140-290,392.002-510,682.002-595
				c105-31.006,352.002-38.008,468.994-14.004c338.008,67.998,626.006,317.998,780,674.004c65,151.992,98.008,123.994-257.998,225
				c-168.994,48.994-310.996,90.996-315,95c-3.994,2.998,147.002,53.994,335,111.992l342.002,106.006l-0.996,123.994
				c-2.002,519.004-349.004,1003.008-816.006,1140C9541.503-3735.657,9263.495-3728.656,9157.499-3751.654z M10096.503-4479.661
				c77.998-32.998,97.998-105.996,42.998-160.996c-59.004-59.004-155-59.004-214.004,0c-38.994,39.004-42.998,79.004-10.996,120
				C9954.501-4469.661,10030.497-4451.653,10096.503-4479.661z M8832.499-4520.657c100.996-52.002,62.002-225-50-225
				c-34.004,0-77.998,27.998-95,60C8633.495-4581.653,8732.499-4468.655,8832.499-4520.657z"/>
		</g>
	</g>
</g>
<g>
	<rect x="1752.814" y="942.985" fill="#FFFFFF" width="165.779" height="43"/>
	<g>
		<g transform="translate(0.000000,252.000000) scale(0.100000,-0.100000)">
			<path fill="#040000" d="M18150.369-6268.743c-435.996-97.002-776.992-493.008-860-999.004c-7.988-49.004-15-110.996-15-135.996
				v-46.006l320-133.994c175.996-73.008,317.012-136.006,312.012-140c-4.004-4.004-132.012-52.002-285-107.002
				c-153.008-55-281.016-102.998-285-106.006c-9.004-10,21.992-95.996,77.988-211.992c140-290,392.012-510,682.012-595
				c105-31.006,351.992-38.008,468.984-14.004c338.008,67.998,626.016,317.998,780,674.004c65,151.992,98.008,123.994-257.988,225
				c-169.004,48.994-310.996,90.996-315,95c-4.004,2.998,146.992,53.994,335,111.992l341.992,106.006l-0.996,123.994
				c-1.992,519.004-349.004,1003.008-815.996,1140C18534.373-6252.747,18256.365-6245.745,18150.369-6268.743z M19089.373-6996.751
				c78.008-32.998,98.008-105.996,43.008-160.996c-59.004-59.004-155-59.004-214.004,0c-39.004,39.004-43.008,79.004-10.996,120
				C18947.381-6986.751,19023.377-6968.743,19089.373-6996.751z M17825.369-7037.747c100.996-52.002,62.012-225-50-225
				c-34.004,0-77.988,27.998-95,60C17626.365-7098.743,17725.369-6985.745,17825.369-7037.747z"/>
		</g>
	</g>
</g>
<g>
	<rect x="1861.564" y="557.294" fill="#FFFFFF" width="165.778" height="43"/>
	<g>
		<g transform="translate(0.000000,252.000000) scale(0.100000,-0.100000)">
			<path fill="#040000" d="M19237.869-2411.84c-435.996-97.002-777.002-493.008-860-999.004c-7.998-49.004-15-110.996-15-135.996
				v-46.006l320-133.994c175.996-73.008,317.002-136.006,312.002-140c-4.004-4.004-132.002-52.002-285-107.002
				s-281.006-102.998-285-106.006c-9.004-10,22.002-95.996,77.998-211.992c140-290,392.002-510,682.002-595
				c105-31.006,352.002-38.008,468.994-14.004c338.008,67.998,626.006,317.998,780,674.004c65,151.992,98.008,123.994-257.998,225
				c-168.994,48.994-310.996,90.996-315,95c-3.994,2.998,147.002,53.994,335,111.992l342.002,106.006l-0.996,123.994
				c-2.002,519.004-349.004,1003.008-816.006,1140C19621.873-2395.844,19343.865-2388.842,19237.869-2411.84z M20176.873-3139.847
				c77.998-32.998,97.998-105.996,42.998-160.996c-59.004-59.004-155-59.004-214.004,0c-38.994,39.004-42.998,79.004-10.996,120
				C20034.871-3129.847,20110.867-3111.84,20176.873-3139.847z M18912.869-3180.844c100.996-52.002,62.002-225-50-225
				c-34.004,0-77.998,27.998-95,60C18713.865-3241.84,18812.869-3128.842,18912.869-3180.844z"/>
		</g>
	</g>
</g>
<g>
	<rect x="-83.556" y="469.231" fill="#FFFFFF" width="165.777" height="43"/>
	<g>
		<g transform="translate(0.000000,252.000000) scale(0.100000,-0.100000)">
			<path fill="#040000" d="M-213.33-1531.205c-435.996-97.002-777.012-493.008-860-999.004c-8.008-49.004-15-110.996-15-135.996
				v-46.006l320-133.994c175.996-73.008,316.992-136.006,311.992-140c-4.004-4.004-131.992-52.002-285-107.002
				c-152.988-55-280.996-102.998-285-106.006c-9.004-10,22.012-95.996,78.008-211.992c140-290,391.992-510,681.992-595
				c105-31.006,352.012-38.008,469.004-14.004c338.008,67.998,625.996,317.998,780,674.004c65,151.992,98.008,123.994-258.008,225
				c-168.984,48.994-310.996,90.996-315,95c-3.984,2.998,147.012,53.994,335,111.992l342.012,106.006l-0.996,123.994
				c-2.012,519.004-349.004,1003.008-816.016,1140C170.674-1515.209-107.334-1508.207-213.33-1531.205z M725.674-2259.213
				c77.988-32.998,97.988-105.996,42.988-160.996c-59.004-59.004-155-59.004-214.004,0c-38.984,39.004-42.988,79.004-10.996,120
				C583.662-2249.213,659.658-2231.205,725.674-2259.213z M-538.33-2300.209c100.996-52.002,61.992-225-50-225
				c-34.004,0-78.008,27.998-95,60C-737.334-2361.205-638.33-2248.207-538.33-2300.209z"/>
		</g>
	</g>
</g>
<g>
	<rect x="962.277" y="972.729" fill="#FFFFFF" width="165.777" height="43"/>
	<g>
		<g transform="translate(0.000000,252.000000) scale(0.100000,-0.100000)">
			<path fill="#040000" d="M10244.999-6566.186c-435.996-97.002-777.007-493.008-860.005-999.004
				c-7.998-49.004-15-110.996-15-135.996v-46.005l320.005-133.994c175.996-73.008,316.992-136.006,311.992-140
				c-4.004-4.004-131.992-52.002-285-107.002c-152.993-55-281.001-102.999-284.995-106.006c-9.004-10,22.002-95.996,77.998-211.992
				c140.005-290,391.997-510,681.997-595c105-31.006,352.012-38.008,469.004-14.004c338.008,67.998,625.996,317.998,780,674.004
				c65,151.992,98.008,123.994-258.008,225c-168.984,48.994-310.996,90.996-315,95c-3.984,2.998,147.012,53.994,335,111.992
				l342.012,106.006l-0.996,123.994c-2.012,519.004-349.004,1003.008-816.016,1140
				C10629.003-6550.189,10350.995-6543.188,10244.999-6566.186z M11184.003-7294.193c77.988-32.998,97.988-105.996,42.988-160.996
				c-59.004-59.004-155-59.004-214.004,0c-38.984,39.004-42.988,79.004-10.996,120
				C11041.991-7284.193,11117.987-7266.186,11184.003-7294.193z M9919.999-7335.189c100.996-52.002,61.992-225-50-225
				c-34.004,0-78.008,27.998-95,60C9720.995-7396.186,9819.999-7283.188,9919.999-7335.189z"/>
		</g>
	</g>
</g>
<g>
	<rect x="311.639" y="948.727" fill="#FFFFFF" width="165.778" height="43"/>
	<g>
		<g transform="translate(0.000000,252.000000) scale(0.100000,-0.100000)">
			<path fill="#040000" d="M3738.613-6326.166c-435.996-97.002-777.002-493.008-860-999.004c-7.998-49.004-15-110.996-15-135.996
				v-46.006l320-133.994c175.996-73.008,317.002-136.006,312.002-140c-4.004-4.004-132.002-52.002-285-107.002
				s-281.006-102.998-285-106.006c-9.004-10,22.002-95.996,77.998-211.992c140-290,392.002-510,682.002-595
				c105-31.006,352.002-38.008,468.994-14.004c338.008,67.998,626.006,317.998,780,674.004c65,151.992,98.008,123.994-257.998,225
				c-168.994,48.994-310.996,90.996-315,95c-3.994,2.998,147.002,53.994,335,111.992l342.002,106.006l-0.996,123.994
				c-2.002,519.004-349.004,1003.008-816.006,1140C4122.617-6310.17,3844.609-6303.168,3738.613-6326.166z M4677.617-7054.174
				c77.998-32.998,97.998-105.996,42.998-160.996c-59.004-59.004-155-59.004-214.004,0c-38.994,39.004-42.998,79.004-10.996,120
				C4535.615-7044.174,4611.611-7026.166,4677.617-7054.174z M3413.613-7095.17c100.996-52.002,62.002-225-50-225
				c-34.004,0-77.998,27.998-95,60C3214.609-7156.166,3313.613-7043.168,3413.613-7095.17z"/>
		</g>
	</g>
</g>
<g>
	<rect x="25.194" y="916.376" fill="#FFFFFF" width="165.778" height="43"/>
	<g>
		<g transform="translate(0.000000,252.000000) scale(0.100000,-0.100000)">
			<path fill="#040000" d="M874.17-6002.661c-435.996-97.002-777.002-493.008-860-999.004c-7.998-49.004-15-110.996-15-135.996
				v-46.006l320-133.994c175.996-73.008,317.002-136.006,312.002-140c-4.004-4.004-132.002-52.002-285-107.002
				s-281.006-102.998-285-106.006c-9.004-10,22.002-95.996,77.998-211.992c140-290,392.002-510,682.002-595
				c105-31.006,352.002-38.008,468.994-14.004c338.008,67.998,626.006,317.998,780,674.004c65,151.992,98.008,123.994-257.998,225
				c-168.994,48.994-310.996,90.996-315,95c-3.994,2.998,147.002,53.994,335,111.992l342.002,106.006l-0.996,123.994
				c-2.002,519.004-349.004,1003.008-816.006,1140C1258.174-5986.665,980.166-5979.663,874.17-6002.661z M1813.174-6730.668
				c77.998-32.998,97.998-105.996,42.998-160.996c-59.004-59.004-155-59.004-214.004,0c-38.994,39.004-42.998,79.004-10.996,120
				C1671.172-6720.668,1747.168-6702.661,1813.174-6730.668z M549.17-6771.665c100.996-52.002,62.002-225-50-225
				c-34.004,0-77.998,27.998-95,60C350.166-6832.661,449.17-6719.663,549.17-6771.665z"/>
		</g>
	</g>
</g>
<g>
	<rect x="1593.945" y="604.294" fill="#FFFFFF" width="165.777" height="43"/>
	<g>
		<g transform="translate(0.000000,252.000000) scale(0.100000,-0.100000)">
			<path fill="#040000" d="M16561.678-2881.841c-435.996-97.002-777.012-493.008-860-999.004c-8.008-49.004-15-110.996-15-135.996
				v-46.006l320-133.994c175.996-73.008,316.992-136.006,311.992-140c-4.004-4.004-131.992-52.002-285-107.002
				c-152.988-55-280.996-102.998-285-106.006c-9.004-10,22.012-95.996,78.008-211.992c140-290,391.992-510,681.992-595
				c105-31.006,352.012-38.008,469.004-14.004c338.008,67.998,625.996,317.998,780,674.003c65,151.992,98.008,123.994-258.008,225
				c-168.984,48.994-310.996,90.996-315,95c-3.984,2.998,147.012,53.994,335,111.992l342.012,106.006l-0.996,123.994
				c-2.012,519.004-349.004,1003.008-816.016,1140C16945.682-2865.845,16667.674-2858.843,16561.678-2881.841z M17500.682-3609.849
				c77.988-32.998,97.988-105.996,42.988-160.996c-59.004-59.004-155-59.004-214.004,0c-38.984,39.004-42.988,79.004-10.996,120
				C17358.67-3599.849,17434.666-3581.841,17500.682-3609.849z M16236.678-3650.845c100.996-52.002,61.992-225-50-225
				c-34.004,0-78.008,27.998-95,60C16037.674-3711.841,16136.678-3598.843,16236.678-3650.845z"/>
		</g>
	</g>
</g>
<rect x="296.753" y="392.805" fill="none" width="123.012" height="58.506"/>
<text transform="matrix(1 0 0 1 296.7534 434.0552)" fill="#FFFFFF" font-family="'LiSu'" font-size="48">你好</text>
<rect x="479.687" y="853.993" fill="none" width="264.515" height="58.506"/>
<text transform="matrix(1 0 0 1 479.687 895.2427)" fill="#FFFFFF" font-family="'LiSu'" font-size="48">こんにちは</text>
<rect x="651.497" y="648.788" fill="none" width="188.896" height="58.506"/>
<text transform="matrix(1 0 0 1 651.4971 690.0377)" fill="#FFFFFF" font-family="'LiSu'" font-size="48">Bonjour</text>
<rect x="380.85" y="648.788" fill="none" width="123.012" height="58.506"/>
<text transform="matrix(1 0 0 1 380.8496 690.0377)" fill="#FFFFFF" font-family="'LiSu'" font-size="48">hola</text>
<rect x="575.688" y="722.396" fill="none" width="123.012" height="58.506"/>
<text transform="matrix(1 0 0 1 575.6885 763.6461)" fill="#FFFFFF" font-family="'LiSu'" font-size="48">ciao</text>
<rect x="368.667" y="480.522" fill="none" width="123.012" height="58.506"/>
<text transform="matrix(1 0 0 1 368.667 521.772)" fill="#FFFFFF" font-family="'LiSu'" font-size="48">hello</text>
<rect x="830.02" y="11.103" fill="none" width="264.516" height="58.506"/>
<text transform="matrix(1 0 0 1 830.0195 53.3433)" fill="#FFFFFF" font-family="'AdobeMyungjoStd-Medium-KSCpc-EUC-H'" font-size="48">안녕하세요</text>
<rect x="300.664" y="40.356" fill="none" width="188.896" height="58.506"/>
<text transform="matrix(1 0 0 1 300.6636 81.606)" fill="#FFFFFF" font-family="'LiSu'" font-size="48">Bonjour</text>
<rect x="1437.417" y="821.643" fill="none" width="188.896" height="58.506"/>
<text transform="matrix(1 0 0 1 1437.417 862.8931)" fill="#FFFFFF" font-family="'LiSu'" font-size="48">Bonjour</text>
<rect x="1150.746" y="36.229" fill="none" width="188.896" height="58.506"/>
<text transform="matrix(1 0 0 1 1150.7461 77.479)" fill="#FFFFFF" font-family="'LiSu'" font-size="48">Bonjour</text>
<rect x="550.438" y="280.71" fill="none" width="123.012" height="58.506"/>
<text transform="matrix(1 0 0 1 550.4385 321.9595)" fill="#FFFFFF" font-family="'LiSu'" font-size="48">hola</text>
<rect x="20.716" y="335.624" fill="none" width="123.012" height="58.506"/>
<text transform="matrix(1 0 0 1 20.7158 376.8736)" fill="#FFFFFF" font-family="'LiSu'" font-size="48">hola</text>
<rect x="333.022" y="792.39" fill="none" width="123.012" height="58.506"/>
<text transform="matrix(1 0 0 1 333.022 833.6402)" fill="#FFFFFF" font-family="'LiSu'" font-size="48">hola</text>
<rect x="814.105" y="913.732" fill="none" width="123.012" height="58.506"/>
<text transform="matrix(1 0 0 1 814.1055 954.982)" fill="#FFFFFF" font-family="'LiSu'" font-size="48">hello</text>
<rect x="1691.309" y="105.415" fill="none" width="123.012" height="58.506"/>
<text transform="matrix(1 0 0 1 1691.3086 146.6646)" fill="#FFFFFF" font-family="'LiSu'" font-size="48">hello</text>
<rect x="1553.239" y="461.478" fill="none" width="123.013" height="58.506"/>
<text transform="matrix(1 0 0 1 1553.2393 502.7281)" fill="#FFFFFF" font-family="'LiSu'" font-size="48">hello</text>
<rect x="1328.084" y="549.542" fill="none" width="264.515" height="58.506"/>
<text transform="matrix(1 0 0 1 1328.084 591.7818)" fill="#FFFFFF" font-family="'AdobeMyungjoStd-Medium-KSCpc-EUC-H'" font-size="48">안녕하세요</text>
<rect x="1138.798" y="183.584" fill="none" width="264.515" height="58.506"/>
<text transform="matrix(1 0 0 1 1138.7979 225.8238)" fill="#FFFFFF" font-family="'AdobeMyungjoStd-Medium-KSCpc-EUC-H'" font-size="48">안녕하세요</text>
<rect x="934.41" y="392.805" fill="none" width="264.515" height="58.506"/>
<text transform="matrix(1 0 0 1 934.4097 435.0454)" fill="#FFFFFF" font-family="'AdobeMyungjoStd-Medium-KSCpc-EUC-H'" font-size="48">안녕하세요</text>
<rect x="1339.641" y="751.649" fill="none" width="264.516" height="58.506"/>
<text transform="matrix(1 0 0 1 1339.6406 792.899)" fill="#FFFFFF" font-family="'LiSu'" font-size="48">こんにちは</text>
<rect x="1676.251" y="803.895" fill="none" width="264.515" height="58.506"/>
<text transform="matrix(1 0 0 1 1676.251 845.1451)" fill="#FFFFFF" font-family="'LiSu'" font-size="48">こんにちは</text>
<rect x="1055.909" y="824.739" fill="none" width="264.515" height="58.506"/>
<text transform="matrix(1 0 0 1 1055.9092 865.9888)" fill="#FFFFFF" font-family="'LiSu'" font-size="48">こんにちは</text>
<rect x="1458.792" y="325.415" fill="none" width="188.896" height="58.506"/>
<text transform="matrix(1 0 0 1 1458.792 366.6646)" fill="#FFFFFF" font-family="'LiSu'" font-size="48">Bonjour</text>
<rect x="397.231" y="154.331" fill="none" width="188.896" height="58.506"/>
<text transform="matrix(1 0 0 1 397.2314 195.5806)" fill="#FFFFFF" font-family="'LiSu'" font-size="48">Bonjour</text>
<rect x="148.216" y="490.731" fill="none" width="188.896" height="58.506"/>
<text transform="matrix(1 0 0 1 148.2158 531.981)" fill="#FFFFFF" font-family="'LiSu'" font-size="48">Bonjour</text>
<rect x="707.007" y="792.39" fill="none" width="123.012" height="58.506"/>
<text transform="matrix(1 0 0 1 707.0073 833.6402)" fill="#FFFFFF" font-family="'LiSu'" font-size="48">你好</text>
<rect x="394.528" y="314.124" fill="none" width="123.012" height="58.506"/>
<text transform="matrix(1 0 0 1 394.5278 355.3736)" fill="#FFFFFF" font-family="'LiSu'" font-size="48">你好</text>
<rect x="1604.154" y="199.56" fill="none" width="123.013" height="58.506"/>
<text transform="matrix(1 0 0 1 1604.1543 240.8101)" fill="#FFFFFF" font-family="'LiSu'" font-size="48">你好</text>
<rect x="1033.029" y="528.042" fill="none" width="123.012" height="58.506"/>
<text transform="matrix(1 0 0 1 1033.0293 569.2916)" fill="#FFFFFF" font-family="'LiSu'" font-size="48">你好</text>
<rect x="766.743" y="310.058" fill="none" width="123.012" height="58.506"/>
<text transform="matrix(1 0 0 1 766.7432 351.3081)" fill="#FFFFFF" font-family="'LiSu'" font-size="48">你好</text>
<rect x="768.513" y="490.731" fill="none" width="123.012" height="58.506"/>
<text transform="matrix(1 0 0 1 768.5132 531.981)" fill="#FFFFFF" font-family="'LiSu'" font-size="48">你好</text>
</svg>
