<?xml version="1.0" encoding="UTF-8" ?>
<!DOCTYPE svg PUBLIC "-//W3C//DTD SVG 1.1//EN" "http://www.w3.org/Graphics/SVG/1.1/DTD/svg11.dtd">
<svg width="512pt" height="512pt" viewBox="0 0 512 512" version="1.1" xmlns="http://www.w3.org/2000/svg">
<path fill="#3c5b9b" opacity="1.00" d=" M 0.00 0.00 L 512.00 0.00 L 512.00 512.00 L 0.00 512.00 L 0.00 0.00 Z" />
<path fill="#ffffff" opacity="1.00" d=" M 236.42 120.32 C 247.87 109.80 263.78 105.85 279.00 105.90 C 294.97 105.92 310.94 105.91 326.92 105.91 C 326.92 122.97 326.93 140.03 326.92 157.09 C 316.93 157.10 306.95 157.08 296.97 157.09 C 291.87 157.13 286.51 159.24 283.59 163.58 C 280.50 168.05 279.72 173.64 279.78 178.95 C 279.79 186.94 279.81 194.92 279.77 202.90 C 295.34 203.23 310.92 202.94 326.49 203.05 C 325.04 220.67 323.08 238.24 321.48 255.85 C 307.87 256.19 294.25 255.71 280.64 256.09 C 280.70 306.10 280.64 356.11 280.66 406.12 C 259.59 406.02 238.52 406.17 217.45 406.04 C 217.50 355.87 217.46 305.71 217.47 255.54 C 207.16 255.48 196.84 255.54 186.53 255.51 C 186.52 238.24 186.53 220.96 186.53 203.69 C 196.93 203.72 207.33 203.67 217.73 203.71 C 217.77 190.16 217.57 176.60 217.84 163.05 C 218.92 147.33 224.59 131.17 236.42 120.32 Z" />
</svg>
