<?xml version="1.0" encoding="UTF-8" ?>
<!DOCTYPE svg PUBLIC "-//W3C//DTD SVG 1.1//EN" "http://www.w3.org/Graphics/SVG/1.1/DTD/svg11.dtd">
<svg width="512pt" height="512pt" viewBox="0 0 512 512" version="1.1" xmlns="http://www.w3.org/2000/svg">
<path fill="#d44132" opacity="1.00" d=" M 0.00 0.00 L 512.00 0.00 L 512.00 512.00 L 0.00 512.00 L 0.00 0.00 Z" />
<path fill="#ffffff" opacity="1.00" d=" M 172.10 126.01 C 180.55 123.86 189.23 122.26 197.99 122.34 C 221.96 122.38 245.94 122.32 269.91 122.37 C 269.39 124.68 268.13 126.91 265.80 127.80 C 257.68 131.50 248.48 130.94 239.93 132.96 C 238.19 133.29 236.74 134.33 235.31 135.29 C 241.65 138.75 248.12 142.80 251.63 149.37 C 257.23 159.60 257.09 171.68 257.21 183.01 C 257.45 192.52 255.31 202.22 250.26 210.35 C 246.10 217.26 240.14 222.83 233.96 227.91 C 229.30 231.89 224.17 235.57 220.81 240.81 C 218.66 244.05 218.24 248.46 220.13 251.93 C 222.69 256.78 227.02 260.34 231.12 263.85 C 241.99 272.91 253.69 281.56 261.41 293.65 C 267.59 303.14 270.43 314.63 269.57 325.90 C 269.07 340.88 263.45 356.01 252.43 366.43 C 237.93 380.49 217.70 386.62 198.07 388.89 C 176.38 391.07 153.64 389.64 133.58 380.48 C 121.30 374.92 110.55 364.92 106.31 351.88 C 101.60 337.17 102.71 319.81 112.19 307.18 C 120.57 295.68 133.98 289.22 147.27 285.16 C 162.98 280.29 179.51 279.17 195.85 278.56 C 194.98 275.03 194.20 271.15 191.33 268.64 C 189.15 266.32 185.23 264.73 185.54 260.98 C 185.41 255.68 185.54 250.38 185.53 245.08 C 167.98 245.85 148.96 242.64 135.50 230.51 C 123.79 220.26 119.27 204.11 119.49 188.99 C 119.12 175.32 122.80 161.20 131.50 150.46 C 141.58 137.79 156.66 130.04 172.10 126.01 Z" />
<path fill="#ffffff" opacity="1.00" d=" M 342.71 122.49 C 347.75 122.27 352.80 122.40 357.85 122.37 C 357.93 139.70 357.87 157.03 357.86 174.36 C 375.18 174.60 392.51 174.48 409.82 174.41 C 410.38 179.44 409.88 184.48 409.91 189.51 C 392.57 189.64 375.22 189.39 357.87 189.64 C 357.86 206.95 357.91 224.26 357.84 241.57 C 352.81 241.56 347.79 241.65 342.76 241.48 C 342.73 224.15 343.07 206.81 342.59 189.49 C 325.36 189.62 308.12 189.48 290.89 189.56 C 290.87 184.51 290.86 179.46 290.91 174.41 C 308.21 174.48 325.52 174.63 342.82 174.33 C 342.73 157.05 342.91 139.77 342.71 122.49 Z" />
<path fill="#d44132" opacity="1.00" d=" M 178.49 135.60 C 187.91 134.39 197.10 138.89 203.94 145.09 C 215.29 155.54 221.63 170.65 223.06 185.86 C 224.00 196.89 222.02 208.51 215.87 217.86 C 211.08 225.16 202.86 230.49 193.98 230.50 C 183.98 230.54 174.88 224.85 168.26 217.73 C 157.52 205.89 151.88 189.82 151.88 173.92 C 152.18 163.33 155.09 152.33 162.31 144.31 C 166.44 139.60 172.26 136.41 178.49 135.60 Z" />
<path fill="#d44132" opacity="1.00" d=" M 179.45 290.65 C 194.69 288.03 210.99 289.98 224.68 297.38 C 233.96 302.43 242.12 310.61 244.90 321.04 C 247.55 330.37 244.91 340.58 239.25 348.28 C 232.14 357.98 221.40 364.58 210.01 368.10 C 193.55 373.23 175.16 372.79 159.29 365.81 C 148.79 361.08 139.08 352.88 135.40 341.65 C 132.05 331.85 134.52 320.79 140.64 312.62 C 149.81 300.29 164.56 293.19 179.45 290.65 Z" />
</svg>
