<svg xmlns="http://www.w3.org/2000/svg" xmlns:xlink="http://www.w3.org/1999/xlink" version="1.1" x="0px" y="0px" viewBox="0 0 95 95" style="enable-background:new 0 0 95 95;" xml:space="preserve"><style type="text/css">
	.st0{fill:#009f3c;}
	path{fill:#ffffff}
</style><g><rect x="0" y="0" class="st0" width="100" height="100"></rect></g><path d="M80.7,95H47.4c-7.9,0-14.2-6.4-14.2-14.2s6.4-14.2,14.2-14.2h33.2c7.9,0,14.2,6.4,14.2,14.2S88.5,95,80.7,95z M47.4,76  c-2.6,0-4.7,2.1-4.7,4.7c0,2.6,2.1,4.7,4.7,4.7h33.2c2.6,0,4.7-2.1,4.7-4.7c0-2.6-2.1-4.7-4.7-4.7H47.4z"></path><path d="M14.3,95C6.4,95,0,88.6,0,80.7s6.4-14.2,14.2-14.2s14.2,6.4,14.2,14.2S22.1,95,14.3,95z M14.3,76c-2.6,0-4.7,2.1-4.7,4.7  c0,2.6,2.1,4.7,4.7,4.7s4.7-2.1,4.7-4.7C19,78.1,16.9,76,14.3,76z"></path><path d="M80.7,61.7H47.4c-7.9,0-14.2-6.4-14.2-14.2V14.3C33.2,6.4,39.5,0,47.4,0c2.6,0,4.7,2.1,4.7,4.7S50,9.5,47.4,9.5  c-2.6,0-4.7,2.1-4.7,4.7v33.2c0,2.6,2.1,4.7,4.7,4.7h33.2c2.6,0,4.7-2.1,4.7-4.7c0-2.6,2.1-4.7,4.7-4.7c2.6,0,4.7,2.1,4.7,4.7  C94.9,55.4,88.5,61.7,80.7,61.7z"></path><path d="M14.3,28.5C6.4,28.5,0,22.1,0,14.3S6.4,0,14.3,0s14.2,6.4,14.2,14.2S22.1,28.5,14.3,28.5z M14.3,9.5c-2.6,0-4.7,2.1-4.7,4.7  s2.1,4.7,4.7,4.7s4.7-2.1,4.7-4.7S16.9,9.5,14.3,9.5z"></path><path d="M90.2,21.4H66.4c-2.6,0-4.7-2.1-4.7-4.7s2.1-4.7,4.7-4.7h23.7c2.6,0,4.7,2.1,4.7,4.7S92.8,21.4,90.2,21.4z"></path><path d="M78.3,33.3L78.3,33.3c-2.6,0-4.7-2.1-4.7-4.7l0-23.7c0-2.6,2.1-4.7,4.7-4.7l0,0C80.9,0,83,2.1,83,4.8l0,23.7  C83,31.1,80.9,33.3,78.3,33.3z"></path></svg>