<?xml version="1.0" encoding="utf-8"?>
<!-- Generator: Adobe Illustrator 16.0.0, SVG Export Plug-In . SVG Version: 6.00 Build 0)  -->
<!DOCTYPE svg PUBLIC "-//W3C//DTD SVG 1.1//EN" "http://www.w3.org/Graphics/SVG/1.1/DTD/svg11.dtd">
<svg version="1.1" id="Layer_1" xmlns="http://www.w3.org/2000/svg" xmlns:xlink="http://www.w3.org/1999/xlink" x="0px" y="0px"
	 width="266.893px" height="266.895px" viewBox="0 0 266.893 266.895" enable-background="new 0 0 266.893 266.895"
	 xml:space="preserve">
<path id="Blue_1_" fill="#3C5A99" d="M252.176,267.666c8.126,0,14.717-6.615,14.717-14.773V14.773
	c0-8.16-6.589-14.772-14.717-14.772H14.947C6.818,0,0.23,6.613,0.23,14.773v238.12c0,8.157,6.587,14.773,14.717,14.773H252.176z"/>
<path id="f" fill="#FFFFFF" d="M182.409,262.307v-99.803h33.499l5.016-38.896h-38.515V98.777c0-11.261,3.127-18.935,19.274-18.935
	l20.597-0.009V45.045c-3.563-0.475-15.788-1.533-30.013-1.533c-29.694,0-50.024,18.126-50.024,51.413v28.684h-33.585v38.896h33.585
	v99.803H182.409z"/>
</svg>
