<?xml version="1.0" encoding="utf-8"?>
<!-- Generator: Adobe Illustrator 16.0.0, SVG Export Plug-In . SVG Version: 6.00 Build 0)  -->
<!DOCTYPE svg PUBLIC "-//W3C//DTD SVG 1.1//EN" "http://www.w3.org/Graphics/SVG/1.1/DTD/svg11.dtd">
<svg version="1.1" id="图层_1" xmlns="http://www.w3.org/2000/svg" xmlns:xlink="http://www.w3.org/1999/xlink" x="0px" y="0px"
	 width="317px" height="346px" viewBox="0 0 317 346" enable-background="new 0 0 317 346" xml:space="preserve">
<g transform="translate(0.000000,346.000000) scale(0.100000,-0.100000)">
	<path d="M1422.002,3435c-506.001-92.002-874.004-507.002-918.003-1035c-6.001-67.002-11.997-87.002-31.001-107.998
		C452.002,2268.999,420,2186.001,420,2152.998c0-6.997-11.001-30-25-50.996c-36.001-55-51.001-138.003-36.001-209.004
		c10-50.996,8.999-60-6.001-78.999c-210-256.001-285-391.997-326.997-596.001c-33.999-167.002-3.999-407.002,56.001-438.994
		C126.001,755,223.999,832.002,307.998,957.998C327.002,985.996,346.001,1010,350,1010s12.002-19.004,18.999-42.002
		C392.002,890.996,468.999,755,540,665.996c38.999-47.998,70-88.994,70-90.996c0-2.998-6.001-5-12.002-5
		c-20,0-140-59.004-175.996-85.996c-18.003-14.004-46.001-53.008-63.003-86.006c-66.001-130-43.999-223.994,66.001-285
		C622.998,4.004,962.002-27.002,1227.002,40c85,22.002,250,99.004,277.998,130c13.999,15.996,31.001,20,76.001,20
		c53.003,0,64.995-5,126.001-45C1915,5,2252.998-34.004,2564.004,44.004c181.992,46.992,280,117.998,292.998,212.998
		c5.996,48.994-35,153.994-80,200.996c-27.998,29.004-110,74.004-200,111.006L2547.998,580l34.004,37.998
		c83.994,92.998,185.996,265,217.998,367.002c7.002,22.002,15,42.998,19.004,47.002c3.994,3.994,23.994-22.002,45-59.004
		c45.996-80,140-178.994,180-188.994c43.994-11.006,57.998,5,90.996,96.992c27.002,77.002,29.004,95,29.004,219.004
		c0,107.998-4.004,152.002-22.002,220c-37.998,142.002-145,347.998-250,477.998c-32.002,41.001-34.004,46.001-24.004,80
		c37.998,130,15,261.001-72.002,404.004c-26.992,45.996-35,72.998-45.996,153.999c-62.002,495-429.004,892.998-915,995
		C1727.998,3452.998,1533.999,3455,1422.002,3435z M1990,2940c39.004-27.998,72.002-78.999,95-147.998
		c12.998-42.002,15.996-77.002,12.998-155c-2.998-89.004-7.998-111.001-35-168.003c-52.002-112.998-130-151.997-217.002-110
		c-85,41.001-136.992,153.999-136.992,296.001c0,133.999,46.992,242.002,126.992,292.002
		C1884.004,2976.001,1942.998,2973.999,1990,2940z M1372.998,2946.001C1461.001,2910,1520,2785,1520,2637.998
		c0-141.997-47.002-245.996-130-287.998c-70-35-130-20-191.001,47.002c-57.998,63.999-81.997,140-82.998,257.998
		c0,88.999,2.998,107.002,26.997,160C1201.001,2940,1281.001,2985,1372.998,2946.001z M677.998,1502.998
		C711.001,1482.002,745,1460,755,1455c16.001-9.004,16.001-17.002,0-120c-8.999-60.996-17.002-164.004-17.002-230.996
		C737.002,995,740,977.002,762.002,927.998c28.999-62.002,65-93.994,152.998-135C965,770,992.002,765,1075,762.002
		c92.002-2.998,102.998-2.002,135,20c57.998,38.994,62.002,57.998,61.001,270c0,103.994-3.003,193.994-6.001,197.998
		c-11.001,17.998,13.999,17.998,101.001,2.998c127.998-22.002,428.999-13.994,576.997,16.006
		C2145,1310,2352.002,1392.002,2510,1494.004c39.004,25,75,45.996,80,45.996c15.996,0,50-130,60-229.004
		c20.996-196.992-25-401.992-125.996-572.998C2457.998,627.002,2305,474.004,2185.996,400.996
		c-97.998-60.996-226.992-112.998-343.994-138.994c-57.998-12.998-120-17.002-252.002-16.006
		c-156.001,1.006-186.001,4.004-275,27.002c-57.002,15-147.002,50-210,81.006C850,480.996,671.001,685,583.999,950
		c-26.001,80-27.998,95.996-28.999,260c0,157.002,2.002,182.998,23.999,252.998C592.002,1505,607.002,1540,611.001,1540
		C616.001,1540,646.001,1522.998,677.998,1502.998z"/>
	<g id="XMLID_5_">
		<g>
			<path fill="#FFA600" d="M2359.004,2095c16.992-15,30.996-32.998,30.996-40c0-23.999-39.004-62.002-97.002-92.998
				C2235.996,1932.002,2150,1910,2150,1925c0,3.999,10.996,20,25,37.002c22.998,26.997,32.002,47.998,20.996,47.998
				c-1.992,0-46.992-28.999-100-63.999c-151.992-102.002-303.994-148.999-480.996-148.999c-163.999,0-315,52.998-468.999,163.999
				c-37.002,27.998-70,47.998-73.003,46.001c-1.997-3.003,5-24.004,17.002-47.002s18.999-43.999,16.001-47.002
				c-8.999-10-112.002,27.002-166.001,59.004c-63.999,38.999-83.999,75.996-56.001,106.997C948.999,2150,1216.001,2240,1450,2270
				c115,13.999,387.998,2.998,504.004-20C2132.002,2215,2287.002,2155,2359.004,2095z"/>
		</g>
		<g>
		</g>
	</g>
	<g id="XMLID_4_">
		<g>
			<path fill="#FB0009" d="M2842.002,2050c13.994-73.999,2.002-160-32.998-235c-30-67.002-181.006-217.998-284.004-285
				c-269.004-175-660.996-275-1000-255.996c-287.998,16.992-632.002,128.994-858.999,280
				c-98.003,65-213.003,182.998-247.002,251.997c-41.001,83.999-36.001,236.997,8.003,251.001
				c5.996,1.997,13.999-13.003,17.998-37.002c8.999-52.002,52.998-136.001,101.001-195c35-43.999,53.999-56.001,53.999-35
				c0,5-17.002,35-37.002,67.002C511.001,1938.999,480,2032.002,480,2110c0,67.002,7.998,110,18.999,110
				c3.003-1.001,23.999-30,46.001-66.001c50-81.997,170-206.997,253.999-262.998c135-92.002,306.001-161.001,488.003-198.003
				c136.997-27.998,542.002-25,672.998,4.004c277.998,61.997,475,166.997,640,340c107.998,112.998,112.002,103.999,30-62.002
				c-69.004-141.001-147.998-231.001-299.004-342.002c-1.992-2.002-1.992-5.996,2.002-8.994C2342.002,1615,2415,1660,2480,1712.998
				c110,91.001,225.996,282.002,267.002,440c10,37.002,20.996,67.002,25.996,67.002C2787.002,2220,2830,2113.999,2842.002,2050z"/>
		</g>
		<g>
		</g>
	</g>
	<g id="XMLID_3_">
		<g>
			<path fill="#FB0009" d="M1252.998,1267.998l-5-185.996c-2.998-102.998-10.996-199.004-15.996-214.004
				c-18.003-42.998-55-60.996-142.002-65.996c-135-7.998-261.001,45.996-307.998,130.996c-31.001,59.004-17.002,285,27.998,447.998
				l10,36.006l112.998-45c61.001-25,113.003-46.006,115-47.002c1.001-0.996,7.002-49.004,12.002-105.996
				c8.999-103.008,16.001-139.004,28.999-139.004c3.003,0,7.002,44.004,8.999,97.998c4.004,127.002,6.001,132.998,40,122.002
				c15-5,47.002-14.004,71.001-20L1252.998,1267.998z"/>
		</g>
		<g>
		</g>
	</g>
	<g id="XMLID_2_">
		<g>
			<path fill="#FFA600" d="M2814.004,287.002c7.998-31.006,5.996-42.002-11.006-65C2752.002,152.998,2637.998,97.998,2485,70
				c-112.002-20.996-340-24.004-444.004-5.996C1932.998,82.998,1819.004,127.002,1770,170l-35,29.004l27.998,0.996
				c45,0,197.002,37.002,292.998,70.996c153.008,54.004,310,143.008,409.004,233.008c37.002,32.998,44.004,35.996,85,30.996
				c25-2.998,77.002-20,115-39.004c62.998-30.996,135-88.994,124.004-100C2787.002,394.004,2765,395,2740,400
				c-49.004,9.004-112.998,2.002-104.004-10.996c3.008-5,18.008-9.004,33.008-9.004s51.992-12.002,81.992-27.002
				C2797.002,329.004,2805.996,319.004,2814.004,287.002z"/>
		</g>
		<g>
		</g>
	</g>
	<g id="XMLID_1_">
		<g>
			<path fill="#FFA600" d="M1405,200c37.998,0,31.001-14.004-25-50c-116.001-74.004-280-105.996-498.999-97.002
				C568.999,67.002,360,155.996,360,277.002c0,40,27.002,67.002,88.999,88.994c88.003,31.006,88.999,35,13.999,30
				C377.998,390,368.999,402.002,420,450c45,42.002,101.001,67.002,217.998,99.004c2.002,0.996,29.004-21.006,60-48.008
				c123.003-105,260-180.996,425-235.996C1227.998,230.996,1358.999,200,1405,200z"/>
		</g>
		<g>
		</g>
	</g>
	<path d="M1815,2727.002c-34.004-34.004-52.998-97.002-40-137.002c10-32.998,32.998-22.998,45,20c10.996,42.998,32.998,70,55.996,70
		c26.006,0,54.004-38.999,54.004-75c0-37.998,25-58.999,40.996-33.999c26.006,41.001-1.992,133.999-50,166.001
		C1875,2767.998,1854.004,2766.001,1815,2727.002z"/>
	<path d="M1343.999,2745c-32.998-22.002-46.997-67.998-41.997-132.002c3.999-47.998,10-60.996,36.997-85
		c17.002-15,41.001-27.998,52.002-27.998c30,0,76.001,51.001,83.999,92.998c10,54.004-2.998,106.001-35,139.004
		C1408.999,2762.998,1375,2767.998,1343.999,2745z M1431.001,2663.999c11.001-31.997-16.001-66.997-42.002-53.999
		c-21.001,12.002-25,50-6.997,67.998C1398.999,2695,1421.001,2688.999,1431.001,2663.999z"/>
</g>
</svg>
